<svg xmlns="http://www.w3.org/2000/svg" xmlns:xlink="http://www.w3.org/1999/xlink" viewBox="0 0 512 512"><defs><style>.cls-1,.cls-90{fill:#000e2d;}.cls-2{fill:#57b3ff;}.cls-3{fill:#2492dd;}.cls-4{fill:#0c78c1;}.cls-5{fill:#ffe603;}.cls-6{fill:#c1a500;}.cls-7{fill:#8c7b00;}.cls-8{fill:#df000c;}.cls-9{fill:#bc0a1b;}.cls-10{fill:#8c0317;}.cls-11{fill:#feec02;}.cls-12{fill:#c9b500;}.cls-13{fill:#a08d00;}.cls-14{fill:#0072bf;}.cls-15{fill:#00558e;}.cls-16{fill:#069136;}.cls-17{fill:#006820;}.cls-18{fill:#4abc00;}.cls-19{fill:#2c7700;}.cls-20,.cls-26,.cls-29,.cls-34,.cls-44,.cls-63,.cls-97{fill:none;}.cls-20,.cls-37,.cls-44,.cls-55,.cls-57,.cls-60,.cls-63,.cls-73,.cls-89,.cls-90,.cls-92{stroke:#000e2d;}.cls-20,.cls-29,.cls-34,.cls-37,.cls-44,.cls-55,.cls-57,.cls-60,.cls-63,.cls-73,.cls-89,.cls-90,.cls-92,.cls-97{stroke-miterlimit:10;}.cls-21{fill:#f4e416;}.cls-22{fill:#ddd314;}.cls-23{fill:#e0b814;}.cls-24{fill:#e29d13;}.cls-25,.cls-28{fill:#fff;}.cls-26{stroke:#fff;stroke-linecap:round;stroke-linejoin:round;}.cls-26,.cls-44,.cls-57,.cls-73{stroke-width:3px;}.cls-26,.cls-28{opacity:0.69;}.cls-27{fill:#1d1d1b;}.cls-29{stroke:#24b1ff;}.cls-29,.cls-60{stroke-width:4px;}.cls-30{fill:#24b1ff;}.cls-31{fill:#8ddcff;}.cls-32,.cls-58{font-size:23.26px;font-family:Inter-Bold, Inter;font-weight:700;}.cls-32,.cls-33{fill:#1dbaff;}.cls-34{stroke:#1dbaff;}.cls-34,.cls-37,.cls-63,.cls-92{stroke-width:2px;}.cls-35{fill:#ffeb5a;}.cls-36,.cls-55{fill:#ffff1d;}.cls-37,.cls-53{fill:#08aab2;}.cls-38,.cls-58{fill:#d3d3d3;}.cls-39{fill:#3eb6ff;}.cls-40{fill:#9b0505;}.cls-41{fill:#e5e5e5;}.cls-42{fill:#17e054;}.cls-43{fill:#09b536;}.cls-45{fill:#03931f;}.cls-46{fill:#016d15;}.cls-47{fill:#ffb101;}.cls-48,.cls-57,.cls-60{fill:#0dc927;}.cls-49{fill:#07aa22;}.cls-50{fill:#05a51c;}.cls-51{fill:#0ce22a;}.cls-52{fill:#1ecfe2;}.cls-54{fill:#c9e213;}.cls-56{fill:#2fe00a;}.cls-59{fill:#30b6e5;}.cls-61{fill:#cef;}.cls-62{fill:#a8950c;}.cls-64{fill:#05789b;}.cls-65,.cls-73{fill:#ff1f1f;}.cls-66{fill:#ce0f0f;}.cls-67{fill:#ff8383;}.cls-67,.cls-69{opacity:0.43;}.cls-68{fill:#999505;}.cls-69{fill:#ffff85;}.cls-70{fill:#95f99f;}.cls-70,.cls-71,.cls-72{opacity:0.5;}.cls-71{fill:#8dff98;}.cls-72{fill:#88ff93;}.cls-74{fill:#f22;}.cls-75{fill:#149ce0;}.cls-76{fill:#e8e8e8;}.cls-77{fill:#20ef47;}.cls-78{fill:#12db34;}.cls-79{fill:#3fccfc;}.cls-80{fill:#63dbfc;}.cls-81{fill:#1db3db;}.cls-82{fill:#ccf8ff;}.cls-83{fill:#00a7db;}.cls-84{fill:#d88705;}.cls-85{fill:#dd9300;}.cls-86{fill:#ffd37b;}.cls-87{fill:#d11111;}.cls-88{fill:#ff5050;}.cls-89{fill:url(#Gradiente_sem_nome_14);}.cls-91{fill:#eacd21;}.cls-92{fill:url(#Gradiente_sem_nome_14-2);}.cls-93{fill:#3bdaff;}.cls-94{fill:#0086a5;}.cls-95{fill:#a9ecfc;}.cls-96{fill:#e6fbff;}.cls-97{stroke:#e8e200;}.cls-98{fill:url(#Gradiente_sem_nome_14-3);}.cls-99{fill:#e8e200;}.cls-100{fill:url(#Gradiente_sem_nome_14-4);}.cls-101{fill:url(#Gradiente_sem_nome_14-5);}.cls-102{fill:url(#Gradiente_sem_nome_14-6);}.cls-103{fill:#fffbae;}.cls-104{fill:#0cc6c6;}.cls-105{fill:#049999;}.cls-106,.cls-107{fill:#69d5ff;}.cls-107{opacity:0.52;}</style><linearGradient id="Gradiente_sem_nome_14" x1="184.25" y1="182.9" x2="150.27" y2="202.23" gradientUnits="userSpaceOnUse"><stop offset="0" stop-color="#e58800"/><stop offset="1" stop-color="#e8e200"/></linearGradient><linearGradient id="Gradiente_sem_nome_14-2" x1="472.06" y1="241.83" x2="438.08" y2="261.16" xlink:href="#Gradiente_sem_nome_14"/><linearGradient id="Gradiente_sem_nome_14-3" x1="341.54" y1="224.09" x2="348.67" y2="234.64" xlink:href="#Gradiente_sem_nome_14"/><linearGradient id="Gradiente_sem_nome_14-4" x1="345.14" y1="264.08" x2="365.04" y2="264.08" xlink:href="#Gradiente_sem_nome_14"/><linearGradient id="Gradiente_sem_nome_14-5" x1="388.68" y1="260.54" x2="373.08" y2="242.57" xlink:href="#Gradiente_sem_nome_14"/><linearGradient id="Gradiente_sem_nome_14-6" x1="400.28" y1="295.43" x2="393.95" y2="275.6" xlink:href="#Gradiente_sem_nome_14"/></defs><g id="Camada_11" data-name="Camada 11"><path class="cls-1" d="M479.05,253.85V254c0,5.6-.22,11.15-.63,16.64-.12,1.58-.26,3.17-.41,4.74a1.62,1.62,0,0,1,0,.22h0c-.08,1-.18,1.89-.3,2.84h0v0q-1,9.38-2.82,18.49v0q-1.78,9.18-4.31,18h0c-.19.68-.38,1.36-.6,2-.72,2.52-1.51,5-2.34,7.48v0q-2.6,7.75-5.74,15.27s0,0,0,0v0c-2.29,5.5-4.8,10.85-7.51,16.11l0,0c-2.85,5.57-5.94,10.95-9.25,16.21-2.4,3.87-4.94,7.62-7.58,11.31-.68,1-1.35,1.9-2,2.83-1.31,1.77-2.62,3.51-4,5.23s-2.89,3.62-4.4,5.41c-1.71,2-3.45,4.05-5.24,6a2.41,2.41,0,0,1-.28.33c-2.62,2.92-5.33,5.74-8.09,8.49-.58.6-1.14,1.17-1.73,1.73q-3.67,3.6-7.55,7.06-3.22,2.87-6.61,5.63c-.54.48-1.09.91-1.65,1.36-4.78,3.88-9.77,7.57-14.88,11-2.33,1.57-4.69,3.12-7.07,4.62-6.42,4-13.07,7.69-19.91,11h0L351,455.88a222.17,222.17,0,0,1-76.36,20.38q-7.08.57-14.24.71c-1.42,0-2.85,0-4.27,0-4.75,0-9.5-.15-14.19-.44-5.72-.38-11.36-.94-16.92-1.73-3.14-.44-6.24-.93-9.34-1.5q-3.23-.61-6.42-1.27c-1.85-.41-3.72-.84-5.57-1.28,0,0-.07,0-.08,0-2-.46-4-1-5.89-1.51-2.39-.64-4.76-1.31-7.1-2-1.8-.56-3.59-1.13-5.36-1.73-1.33-.44-2.67-.9-4-1.38h0a5.92,5.92,0,0,1-.56-.23h0c-1-.34-2-.71-3-1.1q-7.14-2.64-14-5.79l-1.2-.56c-2.66-1.23-5.31-2.52-7.92-3.86l-1.06-.55c-4.24-2.2-8.41-4.55-12.5-7-3.72-2.25-7.38-4.64-11-7.09q-7.83-5.35-15.14-11.34-1.69-1.4-3.38-2.85c-1.87-1.59-3.71-3.22-5.51-4.86a.21.21,0,0,0-.08-.06c-.62-.53-1.2-1.09-1.8-1.63-1.47-1.38-2.94-2.8-4.36-4.19q-6.45-6.36-12.39-13.22c-2.72-3.17-5.38-6.42-7.93-9.74-1.08-1.41-2.15-2.8-3.17-4.23-.36-.46-.7-.94-1-1.4-.16-.19-.28-.38-.43-.58-.38-.54-.78-1.08-1.15-1.63-1.36-1.93-2.71-3.9-4-5.89,0,0,0,0,0,0-.78-1.16-1.55-2.34-2.29-3.53-1.39-2.21-2.74-4.41-4-6.66-.68-1.16-1.33-2.33-2-3.51-.5-.89-1-1.78-1.47-2.69-1-1.84-2-3.71-2.9-5.56,0,0,0,0,0-.06-1.15-2.27-2.25-4.58-3.32-6.88-.23-.47-.45-.93-.64-1.4-2.42-5.33-4.66-10.77-6.65-16.33-1.48-4.17-2.89-8.4-4.13-12.66Q40.38,311,39,305s0,0,0,0a223.87,223.87,0,0,1-4.8-29.27c-.35-3.63-.62-7.23-.77-10.89,0,0,0,0,0,0-.08-1.28-.14-2.57-.15-3.88-.09-2.29-.13-4.57-.13-6.88,0-3,.06-5.94.18-8.89v0c.06-1.31.11-2.6.19-3.9v0c.15-2.9.4-5.81.66-8.69,0-.08,0-.15,0-.22a29.75,29.75,0,0,1,8-17.5,31.3,31.3,0,0,1,5.15-4.39A30.3,30.3,0,0,1,52,207.88,29.77,29.77,0,0,1,72,206.38q16.62,4.58,33.32,8.45s0,0,0,0c5.63,1.32,11.22,2.57,16.83,3.77h0c4,.9,8.08,1.75,12.13,2.56,4.64,1,9.28,1.84,13.92,2.72q10.83,2,21.63,3.84c6.16,1,12.33,2,18.49,2.89l.82.11c1.73.27,3.49.53,5.22.76h0c2.76.4,5.52.79,8.28,1.13,1.76.26,3.49.48,5.25.68q4.11.56,8.23,1.05,11.45,1.4,22.81,2.52l.58.06q3.84.39,7.67.73l3,.28q5.85.53,11.63,1c1.32.12,2.66.21,4,.31l6.66.49c1.69.11,3.37.23,5,.32,3.45.24,6.86.43,10.28.62h0c3.94.22,7.85.41,11.75.6,2.75.12,5.52.23,8.26.31.93.06,1.85.1,2.78.11h0c2.57.11,5.15.18,7.71.26l3.95.1c4.92.12,9.82.21,14.66.25q20.12.25,39.44-.27c6.21-.16,12.37-.35,18.47-.62,1.37-.06,2.76-.12,4.14-.2,0,0,0,0,0,0,2.71-.12,5.42-.24,8.11-.4q7-.37,13.86-.88c4.13-.27,8.2-.58,12.26-.91,8.63-.69,17.05-1.51,25.27-2.41l1.13-.13A17.45,17.45,0,0,1,479.05,253.85Z"/><path class="cls-1" d="M458.75,244.36a203.94,203.94,0,0,1-40.06,121.71c-2.44,3.36-5,6.61-7.7,9.79-4,4.74-8.14,9.31-12.52,13.65-.52.55-1.05,1.07-1.58,1.58q-6.94,6.81-14.54,12.92a204.07,204.07,0,0,1-111.59,44.66q-8.43.69-17,.7c-4.37,0-8.73-.14-13-.41a201.73,201.73,0,0,1-24.14-3q-5.61-1-11.12-2.36-2.73-.64-5.41-1.39-5.79-1.56-11.45-3.46-3.51-1.19-7-2.49-7.11-2.67-13.94-5.85c-2.78-1.29-5.54-2.65-8.25-4.05a206.94,206.94,0,0,1-43.69-30.48L114,394.35c-1.36-1.26-2.7-2.55-4-3.85a203.3,203.3,0,0,1-22.55-26.28,4.7,4.7,0,0,1-.38-.53A203.91,203.91,0,0,1,48.72,244.36c0-113.22,91.79-205,205-205a205,205,0,0,1,205,205Z"/><path class="cls-1" d="M458.17,244.79a204,204,0,0,1-40.06,121.72q-3.67,5-7.7,9.79c-4,4.74-8.14,9.31-12.52,13.65-.52.54-1.05,1.07-1.58,1.58q-6.94,6.8-14.54,12.92a204.06,204.06,0,0,1-111.6,44.66c-5.62.46-11.28.7-17,.7-4.37,0-8.73-.15-13-.42A203.79,203.79,0,0,1,216,446.44q-5.61-1-11.12-2.36c-1.82-.43-3.62-.9-5.41-1.39-3.86-1-7.68-2.21-11.45-3.47-2.34-.78-4.68-1.61-7-2.49q-7.11-2.66-13.94-5.84-4.17-2-8.26-4.06a206.25,206.25,0,0,1-43.68-30.48c-.58-.51-1.15-1-1.73-1.56-1.35-1.26-2.69-2.56-4-3.85a204,204,0,0,1-22.55-26.28,5.82,5.82,0,0,1-.38-.53A203.91,203.91,0,0,1,48.14,244.79c0-113.22,91.79-205,205-205a205,205,0,0,1,205,205Z"/><path class="cls-2" d="M305.15,344.09v18.14c-3,.95-7.17,2-12,3.2V344.09Z"/><path class="cls-3" d="M305.15,362.23v17.64c-3.27.83-7.4,1.82-12,3v-17.4C298,364.19,302.11,363.18,305.15,362.23Z"/><path class="cls-4" d="M305.15,379.87v5.21h-12v-2.25C297.75,381.69,301.88,380.7,305.15,379.87Z"/><path class="cls-2" d="M330.6,344.09v9.57c-5.43,1.34-10.43,2.39-14.38,3.61V344.09Z"/><path class="cls-3" d="M330.6,353.66v21.93a98.15,98.15,0,0,0-14.38.67v-19C320.17,356.05,325.17,355,330.6,353.66Z"/><path class="cls-4" d="M330.6,375.59V384H316.22v-7.72A98.15,98.15,0,0,1,330.6,375.59Z"/><path class="cls-5" d="M355,344.09v.47A70.85,70.85,0,0,1,340.19,351v-6.92Z"/><path class="cls-6" d="M355,344.56v30c-3.53.83-9,1.05-14.83,1.07V351A70.85,70.85,0,0,0,355,344.56Z"/><path class="cls-7" d="M355,374.52v10.56H340.19v-9.49C346.05,375.57,351.49,375.35,355,374.52Z"/><path class="cls-5" d="M379.23,325.12V329a88,88,0,0,0-14.4,8.47v-12.3Z"/><path class="cls-6" d="M379.23,329v31.91c-5.31,3.43-10.37,6.41-14.4,8.7V337.42A88,88,0,0,1,379.23,329Z"/><path class="cls-7" d="M379.23,360.86v24.22h-14.4V369.56C368.86,367.27,373.92,364.29,379.23,360.86Z"/><path class="cls-5" d="M403.41,300.25v17c-3.91,2.67-8.91,4.9-14.38,7.29V300.25Z"/><path class="cls-6" d="M403.41,317.23V341.8A102.85,102.85,0,0,1,389,354.17V324.52C394.5,322.13,399.5,319.9,403.41,317.23Z"/><path class="cls-7" d="M403.41,341.8v43.28H389V354.17A102.85,102.85,0,0,0,403.41,341.8Z"/><path class="cls-8" d="M397.6,426.33c-.54.46-1.08.91-1.65,1.35-4.78,3.88-9.77,7.56-14.88,11-4.11,0-8.28,0-12.44-.12-2.25,0-4.5-.09-6.75-.13,0,0-.06,0-.08,0l-6.76-.18H355c-6.8-.17-13.53-.38-20-.56l-6.43-.17c-1.85-.1-3.69-.16-5.51-.18-.75,0-1.51,0-2.25,0-1.08,0-2.17,0-3.23,0s-2.15.06-3.22.12-2,.1-3.06.17c-2.15.14-4.25.33-6.32.59-1,.11-2,.23-3,.38s-2,.29-3,.45-2,.33-2.94.5l-2.83.55c-2.06.42-4.07.89-6.05,1.39l-2.25.58c-2.85.78-5.62,1.63-8.33,2.56-.78.25-1.53.52-2.29.8-1.07.38-2.13.77-3.18,1.18-.73.29-1.49.58-2.21.89s-1.66.68-2.48,1c-.37.17-.75.33-1.12.48l-1.24.56c-2.43,1.09-4.77,2.21-7.06,3.39l-2.23,1.17A158.92,158.92,0,0,0,238.77,464c-.5.35-1,.7-1.49,1.07A156.76,156.76,0,0,0,225,474.84c-3.14-.43-6.24-.93-9.34-1.49q-3.23-.62-6.42-1.28a164.89,164.89,0,0,1,28.34-23.32c20.79-13.49,49.32-25.06,84.83-23.12,8.24.21,17,.48,25.8.72C365,426.79,382.29,427.06,397.6,426.33Z"/><path class="cls-9" d="M381.07,438.71c-2.33,1.57-4.69,3.12-7.08,4.61a222.41,222.41,0,0,1-19.9,11.05h0l-9.3-.25c-35.28-1.92-63.67,9.48-84.43,22.85-1.41,0-2.85,0-4.26,0-4.75,0-9.5-.16-14.19-.45-5.72-.37-11.36-.93-16.92-1.72a156.76,156.76,0,0,1,12.31-9.79c.48-.37,1-.72,1.49-1.07a158.92,158.92,0,0,1,15.87-9.82l2.23-1.17c2.29-1.18,4.63-2.3,7.06-3.39l1.24-.56c.37-.15.75-.31,1.12-.48.82-.35,1.65-.7,2.48-1s1.48-.6,2.21-.89c1-.41,2.11-.8,3.18-1.18.76-.28,1.51-.55,2.29-.8,2.71-.93,5.48-1.78,8.33-2.56l2.25-.58c2-.5,4-1,6.05-1.39l2.83-.55c1-.17,1.95-.35,2.94-.5s2-.31,3-.45,2-.27,3-.38c2.07-.26,4.17-.45,6.32-.59,1-.07,2-.13,3.06-.17s2.13-.1,3.22-.12,2.15,0,3.23,0c.74,0,1.5,0,2.25,0,1.82,0,3.66.08,5.51.18l6.43.17c6.51.18,13.24.39,20,.56H355l6.76.18s.06,0,.08,0c2.25,0,4.5.1,6.75.13C372.79,438.67,377,438.71,381.07,438.71Z"/><path class="cls-10" d="M354.07,454.37,351,455.88a221.94,221.94,0,0,1-76.36,20.37c-4.71.39-9.46.62-14.25.72,20.76-13.37,49.15-24.77,84.43-22.85Z"/><path class="cls-11" d="M431.5,391.65c-1.42,1.84-2.89,3.63-4.4,5.41-1.71,2-3.45,4.05-5.23,6l-.29.33-38.15-.29c-28.78-.24-57.52-.41-78.84-.2-31.42.31-67.91,17.6-99,40.74a278,278,0,0,0-24.4,20.45s0,0,0,0l-.57-.23h0q-1.51-.52-3-1.11-7.12-2.64-13.95-5.79a273.22,273.22,0,0,1,21.7-19.31c32.57-26.06,72.55-46.32,106.58-46.65,27.74-.27,68,.12,104.62.39C408.82,391.52,420.68,391.61,431.5,391.65Z"/><path class="cls-12" d="M421.87,403.09l-.29.33c-2.62,2.9-5.33,5.73-8.09,8.49-.58.6-1.14,1.16-1.72,1.72q-3.69,3.6-7.56,7.06c-5.49-.06-11.09-.2-16.73-.37l-9.32-.31h-.08c-4.71-.18-9.44-.33-14.18-.49h0l-3.39-.11c-7.64-.24-15.32-.41-22.93-.43-8.72,0-17.41.12-25.9.62l-3.87.25c-2.56.18-5.12.41-7.64.66a187.36,187.36,0,0,0-25.64,4.25,88,88,0,0,0-11.16,3.56l-.06,0a184.4,184.4,0,0,0-43.51,18.22,195.36,195.36,0,0,0-29.19,20.66c-1.8-.56-3.59-1.12-5.35-1.72-1.34-.45-2.68-.92-4-1.38,0,0,0,0,0,0l-.57-.23a270.9,270.9,0,0,1,22.74-20.76C252.14,403.69,296.51,400,345.72,400c15.33,0,27.75.55,40,1.23C397.17,401.89,408.47,402.62,421.87,403.09Z"/><path class="cls-13" d="M263.27,428.34c-11.57,4.54-22.93,11.53-33.59,19.62a264.39,264.39,0,0,0-26.05,22.83l-.08,0c-2-.47-4-1-5.89-1.51-2.38-.64-4.75-1.32-7.09-2a195.36,195.36,0,0,1,29.19-20.66A184.4,184.4,0,0,1,263.27,428.34Z"/><path class="cls-2" d="M311.57,384.93c-9.69.83-20,.64-31.07,2.21-27.37,3.87-59.6,13.21-99.84,43.62q-3.07,1.42-6.14,2.72A211.3,211.3,0,0,1,141,445c-3.72-2.25-7.38-4.63-11-7.09q-7.81-5.35-15.14-11.34c-1.14-.93-2.26-1.88-3.39-2.85a277.12,277.12,0,0,0,29.5-8.14c18.24-6.15,35.84-14.21,54.73-24.65,31.15-17.22,72.08-14.08,97.4-9.81,1.39.25,2.73.48,4,.72,3,.56,5.68,1.1,8,1.62C307.67,384,309.84,384.52,311.57,384.93Z"/><path class="cls-14" d="M280.5,387.14c-27.37,3.87-59.6,13.21-99.84,43.62q-3.07,1.42-6.14,2.72A211.3,211.3,0,0,1,141,445c-3.72-2.25-7.38-4.63-11-7.09q-7.81-5.35-15.14-11.34a215.14,215.14,0,0,0,34.39-5.84,360,360,0,0,0,56.59-19.63C230.07,390.51,256.7,385.1,280.5,387.14Z"/><path class="cls-15" d="M180.66,430.76c-1.47,1.11-2.94,2.25-4.43,3.42q-10.5,8.19-21.69,18.39l-1.07-.54q-6.36-3.31-12.5-7a211.3,211.3,0,0,0,33.55-11.53Q177.58,432.19,180.66,430.76Z"/><path class="cls-16" d="M168.49,390.94a44.69,44.69,0,0,1-3.76,4,204.94,204.94,0,0,1-41.88,7.23,142.26,142.26,0,0,1-35.51-2.37c-2.73-3.18-5.39-6.41-7.92-9.75,9.76.37,20.44.66,31,.88C135.52,391.4,159.77,391.48,168.49,390.94Z"/><path class="cls-17" d="M164.73,394.91c-7.25,6.78-17.67,12.34-29.71,16.59a170.26,170.26,0,0,1-29.13,7.31c-.62-.53-1.2-1.09-1.8-1.63-1.47-1.38-3-2.79-4.36-4.19q-6.47-6.36-12.39-13.22a142.26,142.26,0,0,0,35.51,2.37A204.94,204.94,0,0,0,164.73,394.91Z"/><path class="cls-18" d="M446.81,296.33l-.06,0c-6.22-10.92-24.65-15.74-34.81-34.89a68.37,68.37,0,0,1-.44-8C422.84,263.83,449.21,262.09,446.81,296.33Z"/><path class="cls-19" d="M446.75,296.3c-14.3-8.12-31.82-9.62-34.81-34.89C421.25,275.34,440.53,285.38,446.75,296.3Z"/><path class="cls-18" d="M454,330.49s0,0,.06,0c6.66-10.65,25.27-14.72,36.21-33.43a68.49,68.49,0,0,0,.77-8C479.24,299,453,296.18,454,330.49Z"/><path class="cls-19" d="M454,330.46c14.62-7.53,32.19-8.3,36.21-33.43C480.36,310.57,460.68,319.81,454,330.46Z"/><path class="cls-20" d="M491,289a68.39,68.39,0,0,1-.78,8c-4,25.12-21.59,25.9-36.2,33.44l-.06,0C453,296.18,479.24,299,491,289Z"/><path class="cls-18" d="M455,379.45s0,0,0-.07c6.27-10.16,1.9-27.72,13.24-44.92a65.94,65.94,0,0,1,6.51-4C471.19,344.65,484.66,365.85,455,379.45Z"/><path class="cls-19" d="M455,379.38c.26-15.63-6.48-30.92,13.24-44.92C460.87,348.57,461.28,369.22,455,379.38Z"/><path class="cls-20" d="M455,379.44v-.06c.25-15.62-6.48-30.93,13.24-44.92a64.12,64.12,0,0,1,6.51-4C471.19,344.65,484.66,365.86,455,379.44Z"/><path class="cls-18" d="M458.44,293.26l0,0c3.71-5.92,14.06-8.18,20.14-18.59a38.34,38.34,0,0,0,.43-4.47C472.5,275.74,457.88,274.17,458.44,293.26Z"/><path class="cls-19" d="M458.47,293.24c8.13-4.18,17.91-4.62,20.14-18.59C473.12,282.18,462.18,287.32,458.47,293.24Z"/><path class="cls-18" d="M445,331.27s0,0,0,0c-5.47-10.33-22.48-15.34-31.39-33.45a62.21,62.21,0,0,1-.18-7.49C423.66,300.35,448.25,299.48,445,331.27Z"/><path class="cls-19" d="M445,331.23c-13.07-8-29.33-9.85-31.39-33.45C421.85,311,439.51,320.9,445,331.23Z"/><path class="cls-18" d="M445.17,366l-.06,0c-6.22-10.91-24.65-15.74-34.81-34.89a68.24,68.24,0,0,1-.44-8C421.19,333.54,447.57,331.79,445.17,366Z"/><path class="cls-19" d="M445.1,366c-3.15-1.78-6.47-3.25-9.76-4.73l-.55-.25c-11.37-5.12-22.21-10.52-24.49-29.91,7.44,11.15,21.24,19.79,29.65,28.38A33.12,33.12,0,0,1,445.1,366Z"/><path class="cls-19" d="M445.1,366v6.29c-2.4,3.87-4.94,7.62-7.58,11.31h-2.18V361.26C438.63,362.73,442,364.21,445.1,366Z"/><path class="cls-21" d="M322.59,215.26a68.41,68.41,0,0,1-133.4,1.8,67.83,67.83,0,0,1,70.53-56.78A67.87,67.87,0,0,1,322.59,215.26Z"/><path class="cls-22" d="M261.89,269.12v13.57c-2,.19-4.11.29-6.2.29-1.82,0-3.64-.08-5.43-.21V269.2c1.79.14,3.61.21,5.43.21C257.78,269.41,259.84,269.32,261.89,269.12Z"/><path class="cls-23" d="M239.62,267.51a67.62,67.62,0,0,0,10.64,1.69v13.57a68.34,68.34,0,0,1-61.9-56.07v0a69.32,69.32,0,0,1,.83-9.6A68.44,68.44,0,0,0,239.62,267.51Z"/><path class="cls-23" d="M323.6,222.72a68.36,68.36,0,0,1-51.07,58.15,64.27,64.27,0,0,1-10.64,1.82V269.12a64.63,64.63,0,0,0,10.64-1.82,68.41,68.41,0,0,0,50.06-52A61.39,61.39,0,0,1,323.6,222.72Z"/><path class="cls-22" d="M261.89,282.69V298H250.26V282.77c1.79.13,3.61.21,5.43.21C257.78,283,259.86,282.88,261.89,282.69Z"/><path class="cls-24" d="M323.8,226.66a67.73,67.73,0,0,1-22.78,52,14.25,14.25,0,0,0-4.71,10.72v17.29H215.84V289.34a14.57,14.57,0,0,0-4.9-10.89,67.89,67.89,0,0,1-22.6-50.51c0-.41,0-.84,0-1.24a68.34,68.34,0,0,0,61.9,56.07V298h11.63V282.69a64.27,64.27,0,0,0,10.64-1.82,68.36,68.36,0,0,0,51.07-58.15C323.72,224,323.78,225.34,323.8,226.66Z"/><path class="cls-25" d="M301,278.61a14.35,14.35,0,0,0-4.7,10.73v17.28H282.12V289.34A28.53,28.53,0,0,1,291.6,268a53.54,53.54,0,1,0-71.21-.14A28.88,28.88,0,0,1,230,289.34v17.28H215.84V289.34a14.65,14.65,0,0,0-4.9-10.9,67.74,67.74,0,1,1,90.07.17Z"/><rect class="cls-25" x="227.06" y="324.37" width="58.05" height="7.09" rx="1.83"/><rect class="cls-25" x="220.73" y="310.07" width="70.69" height="7.09" rx="1.83"/><rect class="cls-25" x="232.29" y="338.68" width="47.58" height="7.09" rx="1.83"/><path class="cls-25" d="M275.22,354a4,4,0,0,1-.84,2.51,2.63,2.63,0,0,1-2,1h-6.18a10.17,10.17,0,0,1-20.18,0h-6.18c-1.58,0-2.86-1.59-2.86-3.55a4,4,0,0,1,.83-2.51,2.65,2.65,0,0,1,2-1h32.54C273.93,350.46,275.22,352.05,275.22,354Z"/><path class="cls-26" d="M221.1,209.65c0-15.12,14.61-27.37,32.63-27.37"/><path class="cls-27" d="M250.26,226.79v79.84H239.62V236.29a14.47,14.47,0,0,0,0-19v-7.25h2.7A21.62,21.62,0,0,1,250.26,226.79Z"/><path class="cls-27" d="M242.32,210.05a21.58,21.58,0,0,0-13.69-4.89,21.3,21.3,0,0,0-7.3,1.28,21.62,21.62,0,0,0,7.3,42,21.38,21.38,0,0,0,11-3,21.63,21.63,0,0,0,7.68-7.73,21.24,21.24,0,0,0,3-10.9A21.62,21.62,0,0,0,242.32,210.05Zm-13.69,31.28a14.51,14.51,0,0,1-12.4-7,14.12,14.12,0,0,1-2.15-7.58,14.55,14.55,0,1,1,25.54,9.5,5.45,5.45,0,0,1-.58.6A14.4,14.4,0,0,1,228.63,241.33Z"/><path class="cls-27" d="M272.53,217.3a14.5,14.5,0,0,0,0,19v70.34H261.89V226.79a21.59,21.59,0,0,1,7.95-16.74h2.69Z"/><path class="cls-27" d="M283.52,205.16a21.66,21.66,0,0,0-21.63,21.63,21.32,21.32,0,0,0,4,12.45,21.77,21.77,0,0,0,6.67,6.18,21.64,21.64,0,0,0,32.64-18.63A21.67,21.67,0,0,0,283.52,205.16Zm4.32,35.51a14.25,14.25,0,0,1-4.32.66,14.55,14.55,0,1,1,4.34-.66Z"/><circle class="cls-28" cx="275.29" cy="192.11" r="1.96"/><circle class="cls-28" cx="284.96" cy="190.14" r="2.91"/><circle class="cls-28" cx="280.62" cy="196.39" r="2.91"/><circle class="cls-28" cx="279.6" cy="186.66" r="2.35"/><circle class="cls-28" cx="275.29" cy="187.87" r="1.21"/><circle class="cls-29" cx="136.4" cy="311.67" r="8.29"/><path class="cls-30" d="M87.87,323.33,72,339.23l-15.41,15.4c.1-.11.2-.25.3-.38-1.15-2.27-2.25-4.58-3.32-6.88L82.71,318.2Z"/><path class="cls-31" d="M57.77,351.26a5.3,5.3,0,0,1-.91,3c-1.15-2.27-2.25-4.58-3.32-6.88-.23-.47-.44-.93-.64-1.4a4.45,4.45,0,0,1,1.63.41A5.29,5.29,0,0,1,57.77,351.26Z"/><text class="cls-32" transform="translate(71.49 207.15)">#</text><circle class="cls-33" cx="98.02" cy="274.21" r="4.8"/><circle class="cls-33" cx="104.13" cy="294.13" r="4.8"/><circle class="cls-33" cx="118.81" cy="283.47" r="4.8"/><polyline class="cls-34" points="118.81 283.46 104.13 294.13 98.02 274.21 81.02 283.46"/><circle class="cls-33" cx="81.01" cy="283.47" r="4.8"/><circle class="cls-35" cx="70.11" cy="219.8" r="4.51"/><circle class="cls-35" cx="87.56" cy="259.63" r="6.54"/><circle class="cls-35" cx="98.02" cy="202.35" r="4.8"/><circle class="cls-36" cx="196.87" cy="108.31" r="4.07"/><circle class="cls-36" cx="208.79" cy="82.29" r="4.07"/><circle class="cls-36" cx="323.82" cy="90.5" r="4.91"/><circle class="cls-36" cx="341.1" cy="112.56" r="5.92"/><circle class="cls-36" cx="366.57" cy="287.89" r="4.43"/><circle class="cls-36" cx="367.81" cy="308.97" r="6.17"/><circle class="cls-37" cx="47.19" cy="214.24" r="12.35"/><path class="cls-38" d="M162.46,272.61l-.23.13a8.62,8.62,0,0,0-3.52,3.63h0a.83.83,0,0,1-1.17,0h0a6.92,6.92,0,0,0-3.52-3.66l-.24-.1a.83.83,0,0,1,0-1.17h0a9.26,9.26,0,0,0,3.6-3.48l.16-.28a.83.83,0,0,1,1.17,0l.06.11a11.1,11.1,0,0,0,3.69,3.65h0A.82.82,0,0,1,162.46,272.61Z"/><path class="cls-38" d="M236.05,154.13l-.68.42a14.83,14.83,0,0,0-5,5.27h0a1.24,1.24,0,0,1-1.76,0h0a27.51,27.51,0,0,0-5.29-5.38l-.41-.31a1.25,1.25,0,0,1,0-1.77l.14-.11a30.65,30.65,0,0,0,5.56-5.59h0a1.26,1.26,0,0,1,1.76,0l.27.35a27.8,27.8,0,0,0,5.43,5.35h0A1.25,1.25,0,0,1,236.05,154.13Z"/><path class="cls-39" d="M324,274.62l-.45.29a9.74,9.74,0,0,0-3.34,3.5h0a.83.83,0,0,1-1.18,0h0a18.65,18.65,0,0,0-3.52-3.58l-.27-.21a.83.83,0,0,1,0-1.17l.1-.08a20.57,20.57,0,0,0,3.69-3.71h0a.83.83,0,0,1,1.18,0l.17.23a18.78,18.78,0,0,0,3.62,3.56h0A.83.83,0,0,1,324,274.62Z"/><path class="cls-40" d="M148.16,333.29v36a27.91,27.91,0,0,0-9.15.27V333.29Z"/><path class="cls-40" d="M157.33,343v28.8a32.05,32.05,0,0,0-9.17-2.54V343Z"/><path class="cls-40" d="M166.5,355.64V374a38.35,38.35,0,0,0-6.57-.7c-.18-.1-.35-.21-.53-.33a12.65,12.65,0,0,0-2.07-1.14V355.64Z"/><path class="cls-41" d="M72.17,366.07v6.55c-1.38,0-3,0-4.85.12-1.39-2.21-2.73-4.42-4-6.67Z"/><path class="cls-41" d="M130.51,327.07V370c-.68,1-1.4,2-2.16,3-3.49-.23-6.45-.35-8.74-.33V327.07Z"/><path class="cls-41" d="M113.72,337.54v35.39c-1.72.17-3.39.41-5,.7q-3.08.56-5.89,1.32V337.54Z"/><path class="cls-41" d="M94,340.39v36.07a74.45,74.45,0,0,0-10.89-2.83V340.39Z"/><path class="cls-41" d="M83.08,350v23.67a62.8,62.8,0,0,0-10.91-1V350Z"/><path class="cls-41" d="M61.27,359.87v2.69c-.5-.89-1-1.78-1.47-2.69Z"/><path class="cls-42" d="M78.83,293c0,.23,0,.47-.07.7C63.72,299.57,43,315.33,28,329c-.6-.08-1.22-.13-1.84-.21C35.05,301.45,48.73,291.8,78.83,293Z"/><path class="cls-43" d="M78.76,293.66C76.08,322.52,64.51,332.81,28,329,43,315.33,63.72,299.57,78.76,293.66Z"/><path class="cls-44" d="M78.83,293c0,.23,0,.47-.07.7C76.08,322.52,64.51,332.81,28,329c-.6-.08-1.22-.13-1.84-.21C35.05,301.45,48.73,291.8,78.83,293Z"/><path class="cls-43" d="M115.58,300.7v15.66a6.73,6.73,0,0,1-.06.91,10.29,10.29,0,0,1-20.5,0,6.73,6.73,0,0,1-.06-.91V300.7l7.25,5.83h0l3,2.44,3-2.44h0Z"/><path class="cls-45" d="M115.58,313.2v3.16a6.73,6.73,0,0,1-.06.91,10.29,10.29,0,0,1-20.5,0,6.73,6.73,0,0,1-.06-.91V313.2a13.13,13.13,0,0,0,20.62,0Z"/><path class="cls-46" d="M115.37,318.35a10.29,10.29,0,0,1-20.2,0,13.11,13.11,0,0,0,20.2,0Z"/><path class="cls-47" d="M223,353.9c-11.18,11.9-22.25,8-30.12,1.9.45-1.09,1-2.21,1.55-3.36a192.84,192.84,0,0,1,15.9-18.72C213.4,337.91,219.52,346.49,223,353.9Z"/><path class="cls-48" d="M107.62,232.22c10.31,9.71,19.57,14.15,28.49,16.16-13.16,7.27-25.94,5.78-35.78,2.51-6.53-9.15-11.53-21.32-13.65-36.09,45.7-2.54,44.5,12.38,54.5,25.06C141.18,239.86,122.87,239.41,107.62,232.22Z"/><path class="cls-49" d="M166.34,249.92c-4.86,12.4-23.8,20.46-34,20.46a26.29,26.29,0,0,1-5.19-.5,33.86,33.86,0,0,1-9.67-3.39,50.25,50.25,0,0,1-17.19-15.6c9.84,3.27,22.62,4.76,35.78-2.51C146.24,250.67,156,249.82,166.34,249.92Z"/><path class="cls-50" d="M176.65,241.74c-11.8-9-31.09-20.47-44.75-25a13.33,13.33,0,0,0-1.47-1.9C163.45,214.8,172.37,226.5,176.65,241.74Z"/><path class="cls-51" d="M177.23,243.93H157.46c-20.56-12.93-22-21.83-25.56-27.23,13.66,4.57,32.95,16,44.75,25C176.85,242.45,177,243.19,177.23,243.93Z"/><path class="cls-48" d="M147.23,106c12.65,12.06,28.29,24.77,38.49,43a65.84,65.84,0,0,1,10.21,30.47c8.51-25.78,3.49-67.43-48.41-75.28C147.4,104.78,147.3,105.38,147.23,106Z"/><path class="cls-49" d="M183.06,162.83c-6.86-18.61-10.93-29.33-16.18-34.09A85.69,85.69,0,0,1,185.72,149c-10.2-18.22-25.84-30.93-38.49-43C143.91,128.68,154,153.91,183.06,162.83Z"/><path class="cls-52" d="M61.89,132.68c14.79,9.31,32.64,18.68,46.24,34.52,7.63,7.81,12.72,16.89,16,27.84,3.24-26.95-9.92-66.78-62.35-64.2C61.82,131.45,61.85,132.06,61.89,132.68Z"/><path class="cls-53" d="M108.27,181.29c-10.41-16.88-16.52-26.58-22.61-30.21,9.23,4.78,16.6,10.07,22.47,16.12C94.53,151.36,76.68,142,61.89,132.68,63.13,155.56,78,178.31,108.27,181.29Z"/><path class="cls-54" d="M468,203.81l-.7.44c-8.65-3.56-19.87-5-30-4.8,5.84-3.26,10.24-7.21,11.07-8.86-6.1.27-23.68,4.79-31.11,9.44C429.58,177.22,447.9,173.57,468,203.81Z"/><path class="cls-1" d="M66.58,130.72c48.47,0,60.72,38.2,57.59,64.33-3.32-11-8.41-20-16-27.85-5.87-6-13.26-11.34-22.48-16.13,6.08,3.64,12.21,13.34,22.61,30.22-30.29-3-45.13-25.72-46.38-48.61,0-.62-.07-1.22-.07-1.84,1.62-.08,3.21-.12,4.76-.12m0-3c-1.6,0-3.25,0-4.91.12l-2.85.14v2.86c0,.69,0,1.35.08,2v.05a56.34,56.34,0,0,0,13,33.53c8.78,10.23,21.26,16.41,36.07,17.87l6,.6-3.18-5.16c-3.45-5.59-6.41-10.35-9-14.39q2.23,1.94,4.21,4a63.39,63.39,0,0,1,15.31,26.63l4.14,13.69,1.71-14.21c2.21-18.44-3-36.85-14-49.25-10.85-12.23-26.51-18.43-46.54-18.43Z"/><circle class="cls-55" cx="245.21" cy="38.91" r="3.92"/><circle class="cls-56" cx="403.49" cy="156.28" r="7.69"/><circle class="cls-57" cx="200.94" cy="52.39" r="15.26"/><text class="cls-58" transform="translate(193.31 60.88)">#</text><circle class="cls-57" cx="162.28" cy="66.06" r="8.74"/><path class="cls-59" d="M113.72,372.93v9.26h-5.41c-1.66-.67-3.49-1.49-5.5-2.36V375q2.82-.76,5.89-1.32C110.33,373.34,112,373.1,113.72,372.93Z"/><path class="cls-59" d="M128.35,373a53.21,53.21,0,0,1-8.35,9.24h-.39v-9.57C121.9,372.6,124.86,372.72,128.35,373Z"/><circle class="cls-60" cx="306.67" cy="47.93" r="11.48"/><circle class="cls-61" cx="398.88" cy="126.68" r="4.47"/><circle class="cls-61" cx="309.91" cy="164.27" r="4.47"/><path class="cls-61" d="M391.65,104.67c.19-.17.39-.35.58-.54l-.27.52A1.62,1.62,0,0,1,391.65,104.67Z"/><path class="cls-48" d="M399.09,74.48c-3.26,3.6-7.37,8.14-11.52,12.77-13.7,6.34-29,21.24-36.08,35.31,2.73-35.51,16.57-46.92,47.52-51.28C399.05,72.36,399.07,73.43,399.09,74.48Z"/><path class="cls-46" d="M362,120.55l.27-.53c20.29-18.49,25.72-33,25.72-33l-.39.2c4.15-4.63,8.26-9.17,11.52-12.77C399.47,103.51,390.21,119.4,362,120.55Z"/><path class="cls-44" d="M362,120.55l.27-.53c20.29-18.49,25.72-33,25.72-33l-.39.2c-13.7,6.34-29,21.24-36.08,35.31,2.73-35.51,16.57-46.92,47.52-51.28,0,1.08.06,2.15.08,3.2C399.47,103.51,390.21,119.4,362,120.55Z"/><path class="cls-31" d="M94,376.46v5.73H73.64c-1.38-1.93-2.71-3.89-4-5.89,0,0,0,0,0,0-.78-1.16-1.55-2.34-2.29-3.52,1.84-.08,3.47-.14,4.85-.12a62.8,62.8,0,0,1,10.91,1A74.45,74.45,0,0,1,94,376.46Z"/><path class="cls-62" d="M467.26,204.25c-16.75,10.45-32.56,4.71-41.3-.44a40.35,40.35,0,0,0,11.31-4.36C447.39,199.29,458.61,200.69,467.26,204.25Z"/><path class="cls-63" d="M468,203.8c-.23.17-.46.3-.69.45C450.51,214.69,434.7,209,426,203.8a39.87,39.87,0,0,0,11.33-4.36c5.83-3.24,10.23-7.21,11.06-8.86-6.1.28-23.68,4.8-31.11,9.45C429.58,177.21,447.89,173.57,468,203.8Z"/><path class="cls-31" d="M94,380.06v5.74H76.24c-.35-.47-.7-.93-1-1.4-.16-.19-.29-.38-.43-.58-.38-.54-.77-1.08-1.14-1.63-1.38-1.93-2.71-3.89-4-5.89,0,0,0,0,0,0,.93,0,1.78,0,2.56,0a62.8,62.8,0,0,1,10.91,1A75.74,75.74,0,0,1,94,380.06Z"/><rect class="cls-39" x="350.65" y="130.2" width="5.96" height="15.7"/><rect class="cls-39" x="362.28" y="130.2" width="5.96" height="15.7"/><rect class="cls-39" x="373.55" y="130.2" width="5.96" height="15.7"/><rect class="cls-64" x="362.28" y="113" width="5.96" height="36.49" transform="translate(234.02 496.5) rotate(-90)"/><circle class="cls-44" cx="342.37" cy="65.76" r="13.37"/><circle class="cls-65" cx="342.37" cy="65.76" r="13.37"/><path class="cls-66" d="M354.94,70.36a13.38,13.38,0,0,1-25.16-.09A75.43,75.43,0,0,0,354.94,70.36Z"/><path class="cls-67" d="M337.27,78.12a13.37,13.37,0,0,1,.36-24.86C335.44,59.58,333.29,67.54,337.27,78.12Z"/><circle class="cls-65" cx="300.18" cy="74.71" r="8.24"/><path class="cls-66" d="M298.58,82.8a8.24,8.24,0,0,1-2.35-15.32A46.46,46.46,0,0,0,298.58,82.8Z"/><path class="cls-67" d="M292.17,72.79a8.24,8.24,0,0,1,15.17-2.15C303.28,69.91,298.23,69.36,292.17,72.79Z"/><circle class="cls-65" cx="275.89" cy="54.26" r="8.99"/><path class="cls-66" d="M271,61.82a9,9,0,0,1,3.79-16.48A50.8,50.8,0,0,0,271,61.82Z"/><path class="cls-67" d="M268.54,49.09A9,9,0,0,1,284.79,53C281,50.63,276.07,48.05,268.54,49.09Z"/><circle class="cls-65" cx="229.86" cy="63.21" r="8.99"/><path class="cls-66" d="M224.26,56.17A9,9,0,0,1,238.66,65,50.83,50.83,0,0,0,224.26,56.17Z"/><path class="cls-67" d="M237.11,57.9A9,9,0,0,1,228.21,72C231.68,69.17,235.69,65.36,237.11,57.9Z"/><circle class="cls-65" cx="210.69" cy="101.56" r="4.56"/><path class="cls-66" d="M207.84,98a4.57,4.57,0,0,1,7.32,4.49A25.69,25.69,0,0,0,207.84,98Z"/><path class="cls-67" d="M214.37,98.86a4.57,4.57,0,0,1-4.52,7.19A11.57,11.57,0,0,0,214.37,98.86Z"/><circle class="cls-36" cx="209.41" cy="130.96" r="8.78"/><path class="cls-68" d="M218.09,132.38a8.79,8.79,0,0,1-16.25,3A49.67,49.67,0,0,0,218.09,132.38Z"/><path class="cls-69" d="M207.64,139.56a8.78,8.78,0,0,1-2.83-16.08C204.18,127.83,203.77,133.22,207.64,139.56Z"/><circle class="cls-65" cx="435.69" cy="173.15" r="8.78"/><path class="cls-66" d="M444.37,174.57a8.8,8.8,0,0,1-16.25,3A49.67,49.67,0,0,0,444.37,174.57Z"/><path class="cls-67" d="M433.92,181.75a8.79,8.79,0,0,1-2.83-16.09C430.46,170,430.05,175.41,433.92,181.75Z"/><circle class="cls-65" cx="442.08" cy="223.01" r="2.26"/><path class="cls-66" d="M444.31,223.37a2.25,2.25,0,0,1-4.17.78A12.54,12.54,0,0,0,444.31,223.37Z"/><path class="cls-67" d="M441.63,225.22a2.26,2.26,0,0,1-.73-4.14A5.71,5.71,0,0,0,441.63,225.22Z"/><circle class="cls-65" cx="433.13" cy="256.25" r="4.29"/><path class="cls-66" d="M437.37,256.94a4.29,4.29,0,0,1-7.93,1.48A24.27,24.27,0,0,0,437.37,256.94Z"/><path class="cls-67" d="M432.27,260.44a4.28,4.28,0,0,1-1.38-7.84A10.79,10.79,0,0,0,432.27,260.44Z"/><circle class="cls-65" cx="140.38" cy="288.21" r="6.56"/><path class="cls-66" d="M146.86,289.27a6.57,6.57,0,0,1-12.14,2.27A37,37,0,0,0,146.86,289.27Z"/><path class="cls-67" d="M139.06,294.63a6.55,6.55,0,0,1-2.12-12A16.58,16.58,0,0,0,139.06,294.63Z"/><circle class="cls-65" cx="293.79" cy="116.9" r="3.77"/><path class="cls-66" d="M297.36,115.68a3.78,3.78,0,0,1-5.54,4.44A21.23,21.23,0,0,0,297.36,115.68Z"/><path class="cls-67" d="M294.85,120.51a3.77,3.77,0,0,1-4.32-5.52A9.51,9.51,0,0,0,294.85,120.51Z"/><circle class="cls-48" cx="295.06" cy="139.91" r="13.62"/><path class="cls-49" d="M308,135.52a13.63,13.63,0,0,1-20,16A76.76,76.76,0,0,0,308,135.52Z"/><path class="cls-70" d="M298.92,153A13.62,13.62,0,0,1,283.31,133C285.63,139.44,289,147.11,298.92,153Z"/><circle class="cls-48" cx="296.34" cy="96.45" r="6.7"/><path class="cls-49" d="M301.74,100.43a6.71,6.71,0,0,1-12.09-3.59A37.87,37.87,0,0,0,301.74,100.43Z"/><path class="cls-71" d="M292.15,101.67a6.7,6.7,0,0,1,3.68-11.91C293.88,92.5,291.73,96,292.15,101.67Z"/><circle class="cls-48" cx="403.73" cy="189.77" r="12.99"/><path class="cls-49" d="M416.72,190.11a13,13,0,0,1-23.18,7.71A73.14,73.14,0,0,0,416.72,190.11Z"/><path class="cls-72" d="M402.87,202.72a13,13,0,0,1-7.38-23C395.44,186.23,395.93,194.21,402.87,202.72Z"/><circle class="cls-73" cx="120" cy="95.06" r="12.3"/><circle class="cls-74" cx="185.02" cy="377.77" r="4.41"/><path class="cls-59" d="M94,377.7v8.1H76.24c-.35-.47-.7-.93-1-1.4-.16-.19-.29-.38-.43-.58-.38-.54-.77-1.08-1.14-1.63-1.38-1.93-2.71-3.89-4-5.89.83-.06,1.68-.08,2.54-.08,2.75,0,6.45.16,10.89.49C86.33,376.94,90,377.27,94,377.7Z"/><path class="cls-31" d="M108.31,382.19h-5.5v-2.36C104.82,380.7,106.65,381.52,108.31,382.19Z"/><path class="cls-31" d="M130.51,370v12.24H120C123.41,379.46,127.35,374.52,130.51,370Z"/><path class="cls-75" d="M413.53,209.72a21.37,21.37,0,0,0-21.34,21.34,20.87,20.87,0,0,0,2.14,9.26c.58.08,1.14.14,1.72.25a26.6,26.6,0,0,1,3,.64s0,0,0,0a29.3,29.3,0,0,1,3,.95c12,4.56,22.75,1.13,30.83-2.23.14-.29.27-.6.39-.91a20.76,20.76,0,0,0,1.55-8A21.36,21.36,0,0,0,413.53,209.72Zm0,33a11.35,11.35,0,0,1-6.34-1.9,11.65,11.65,0,1,1,13.86-.88A11.41,11.41,0,0,1,413.53,242.71Z"/><path class="cls-64" d="M432.93,239.93a21.31,21.31,0,0,1-38.6.39,32.17,32.17,0,0,1,7.77,1.84C414.13,246.72,424.85,243.29,432.93,239.93Z"/><circle class="cls-76" cx="410.58" cy="229.94" r="2.48"/><path class="cls-76" d="M416.21,230.83c0,.28-1.15-.27-2.52-.4s-2.44.18-2.41-.09a2.75,2.75,0,0,1,2.52-.92A3.08,3.08,0,0,1,416.21,230.83Z"/><circle class="cls-76" cx="417.26" cy="231.46" r="3.03"/><circle class="cls-39" cx="324.66" cy="143.47" r="6.4"/><path class="cls-77" d="M208.34,304.69a18.61,18.61,0,0,1-.21,2.63c-7.52,7.29-22.95,19.66-30,29.44v-9.69C185.66,314,193.67,309.48,208.34,304.69Z"/><path class="cls-78" d="M208.13,307.32c-1.13,8.28-7,18.36-13.88,26.92-5.83-1.47-11.88,2.74-16.14,8.3v-5.78C185.18,327,200.61,314.61,208.13,307.32Z"/><path class="cls-49" d="M194.25,334.24c-5.37,6.69-11.34,12.49-16.14,15.76v-7.46C182.37,337,188.42,332.77,194.25,334.24Z"/><path class="cls-77" d="M172.41,326.45v12.91c-4.5-8.26-10.49-15.74-16.94-20.45-.12-2.07-.14-4.09-.08-6C163,315.27,167.25,319.55,172.41,326.45Z"/><path class="cls-78" d="M172.41,339.36v3.41c-2.83-5.58-6.79-9.82-14.75-10.93a56.62,56.62,0,0,1-2.19-12.93C161.92,323.62,167.91,331.1,172.41,339.36Z"/><path class="cls-49" d="M172.41,342.77v6.65c-7.81-2.58-12.37-9.55-14.75-17.58C165.62,333,169.58,337.19,172.41,342.77Z"/><path class="cls-51" d="M186.23,272.55c-5.86,5.24-19,13.55-26.67,23.77a40.75,40.75,0,0,1-3.76-2.23c-.41-12.93,16.63-25.66,29.11-30A22.42,22.42,0,0,0,186.23,272.55Z"/><path class="cls-48" d="M183.78,287c-4.47-.6-11,2.14-12.36,13.13a35,35,0,0,1-11.86-3.76c7.63-10.22,20.81-18.53,26.67-23.77,3,8.34,10.27,12.52,10.4,20.2a33.11,33.11,0,0,1-18.37,7.48C178.73,293.91,180.08,290.73,183.78,287Z"/><path class="cls-50" d="M171.61,312.25c-6.94-2.91-12.11-7.19-14.46-12.37a15.56,15.56,0,0,1-1.35-5.75v0a40.75,40.75,0,0,0,3.76,2.23,35,35,0,0,0,11.86,3.76A53.09,53.09,0,0,0,171.61,312.25Z"/><path class="cls-50" d="M196.63,292.75c0,.44,0,.91,0,1.38-1,10.93-15.82,17-19.19,18.78.48-4.79.6-9.09.87-12.68A33.11,33.11,0,0,0,196.63,292.75Z"/><path class="cls-79" d="M267.28,118.25a9.16,9.16,0,0,0-3,6.87v7.4H235.85v-7.4a9.31,9.31,0,0,0-3.12-6.94,26,26,0,1,1,34.55.07Z"/><rect class="cls-25" x="236.21" y="136.11" width="28.1" height="3.04" rx="0.78"/><rect class="cls-25" x="239.88" y="141.82" width="20.77" height="3.04" rx="0.78"/><path class="cls-25" d="M266.22,132.52h-4v-7.4a11.12,11.12,0,0,1,3.7-8.35,24,24,0,1,0-31.92-.06,11.28,11.28,0,0,1,3.77,8.41v7.4h-3.95v-7.4a7.36,7.36,0,0,0-2.45-5.47,27.95,27.95,0,1,1,37.17.08,7.18,7.18,0,0,0-2.37,5.39Z"/><circle class="cls-80" cx="250.26" cy="98.73" r="20.79"/><circle class="cls-81" cx="250.26" cy="98.73" r="17.62"/><rect class="cls-82" x="239.87" y="103.73" width="4.19" height="28.79"/><rect class="cls-82" x="256.46" y="103.73" width="4.19" height="28.79"/><rect class="cls-82" x="242.39" y="103.73" width="15.31" height="4.1"/><rect class="cls-82" x="247.86" y="99.18" width="5.01" height="4.1" transform="translate(149.13 351.59) rotate(-90)"/><path class="cls-82" d="M250.36,89.9a5.16,5.16,0,0,0-2.05,9.89,5.21,5.21,0,0,0,4.1,0,5.16,5.16,0,0,0-2-9.89Zm0,7.58a2.42,2.42,0,1,1,2.42-2.42A2.4,2.4,0,0,1,250.36,97.48Z"/><circle class="cls-25" cx="238.6" cy="82.36" r="1.48"/><circle class="cls-25" cx="241.85" cy="80.31" r="1.48"/><circle class="cls-25" cx="245.1" cy="79.05" r="1.48"/><path class="cls-83" d="M47.36,269.24a16.14,16.14,0,0,1-14.13-8.32,16,16,0,0,1-2-7.32H21.06c.15,1.72.15,1.7.35,4l3.56.52c.66,2,.78,2.31,1.44,4.29L23.87,265l2.63,4.15L29.93,268l3.26,3.12-1.07,3.45c1.07.6,1.57.91,2,1.16l2.25,1.3,2.46-2.63,4.34,1.26.68,3.54c2.5.1,2.29.08,4.42.18V269.22C48,269.24,47.67,269.24,47.36,269.24ZM73.08,247c-.85-2.54-.72-2.13-1.57-4.69l-3.61.35-2.4-3.8,1.84-3.12c-1.94-1.86-1.63-1.55-3.55-3.41l-3,2-3.89-2.24.17-3.61c-2.56-.76-2.15-.64-4.73-1.38l-1.76,3.16-1.32,0h0V237A16.16,16.16,0,0,1,63.5,253.08h6.85c-.16-1.77-.2-2.21-.35-4.17Z"/><path class="cls-83" d="M352,315.58c.42-2.65.36-2.23.79-4.86l-3.35-1.38c-.18-2-.2-2.42-.37-4.5l3.08-1.9c-.85-2.54-.72-2.13-1.57-4.67l-3.58.35-2.43-3.82,1.84-3.1c-1.91-1.86-1.6-1.57-3.54-3.41l-3,2c-1.8-1-2.13-1.22-3.91-2.27l.19-3.6L331.35,283l-1.76,3.14c-2.07-.08-2.44-.08-4.5-.18l-1.51-3.27c-2.63.54-2.21.44-4.82,1l-.1,3.6c-1.88.89-2.21,1.07-4.09,1.94l-2.85-2.19c-2.07,1.69-1.74,1.42-3.82,3.1l1.59,3.26c-1.24,1.64-1.45,1.95-2.69,3.6l-3.57-.62c-1,2.46-.89,2.08-1.94,4.54l2.93,2.13c-.33,2-.39,2.4-.72,4.46l-3.45,1.1c.22,2.68.2,2.23.41,4.91l3.57.54c.66,2,.79,2.3,1.43,4.26l-2.52,2.58c1.42,2.27,1.2,1.9,2.64,4.17l3.41-1.21,3.25,3.14-1,3.45,4.26,2.47,2.46-2.64c2,.56,2.35.68,4.34,1.24l.68,3.57,4.93.17,1-3.49,4.41-.89,2.25,2.83c2.42-1.16,2-1,4.46-2.11l-.78-3.55c1.59-1.3,1.88-1.55,3.49-2.85l3.32,1.46c1.59-2.16,1.34-1.81,2.94-3.94L346.61,320c.81-1.92.95-2.25,1.76-4.15Zm-25.57,9.59A16.15,16.15,0,1,1,342.56,309,16.16,16.16,0,0,1,326.41,325.17Z"/><circle class="cls-25" cx="326.41" cy="309.01" r="19.74"/><circle class="cls-83" cx="326.41" cy="309.01" r="13.73"/><circle class="cls-25" cx="326.41" cy="309.01" r="6.17"/><path class="cls-84" d="M225.59,362.64a17.23,17.23,0,0,1-34.34,2.05c9.24,6.3,22.29,10.37,34.22-3.45A8.64,8.64,0,0,1,225.59,362.64Z"/><path class="cls-85" d="M225.47,361.24c-11.93,13.82-25,9.75-34.22,3.45a13.94,13.94,0,0,1-.14-2.05,19.1,19.1,0,0,1,1.76-6.84c7.87,6.12,18.94,10,30.12-1.9A26.55,26.55,0,0,1,225.47,361.24Z"/><path class="cls-86" d="M210.32,333.72a192.84,192.84,0,0,0-15.9,18.72,143.15,143.15,0,0,1,12.39-19.26,1.9,1.9,0,0,1,3.08,0C210,333.35,210.14,333.53,210.32,333.72Z"/><path class="cls-87" d="M148.16,369.25v6.2c-2.6.23-6,0-9.15.72v-6.65A27.91,27.91,0,0,1,148.16,369.25Z"/><path class="cls-87" d="M157.33,371.79v1.49c-2.58.1-4.79.5-5.76,1.22a7,7,0,0,1-3.41.95v-6.2A32.05,32.05,0,0,1,157.33,371.79Z"/><path class="cls-87" d="M159.93,373.26c-.9,0-1.77,0-2.6,0v-1.49a12.65,12.65,0,0,1,2.07,1.14C159.58,373.05,159.75,373.16,159.93,373.26Z"/><path class="cls-88" d="M166.5,374v2a21,21,0,0,1-6.57-2.65A38.35,38.35,0,0,1,166.5,374Z"/><path class="cls-88" d="M166.5,375.91v5.9h-9.17v-8.53c.83,0,1.7,0,2.6,0A21,21,0,0,0,166.5,375.91Z"/><path class="cls-88" d="M157.33,373.28v8.53h-9.17v-6.36a7,7,0,0,0,3.41-.95C152.54,373.78,154.75,373.38,157.33,373.28Z"/><path class="cls-88" d="M148.16,375.45v6.36H139v-5.64C142.17,375.49,145.56,375.68,148.16,375.45Z"/><path class="cls-89" d="M195.59,188.65l-2.39-1.59c-.29-1.82-.42-2.75-.71-4.57l2.28-2.77c-1.51-2.5-1.53-2.52-3-5l-3.51.73-3.72-2.73-.35-3.58-5.71-1.4-2,3c-1.82.3-2.75.41-4.58.7l-2.77-2.27c-2.5,1.54-2.5,1.54-5,3l.72,3.51c-1.11,1.47-1.65,2.22-2.75,3.72l-3.55.35c-.72,2.83-.72,2.85-1.41,5.69l3,2c.27,1.82.43,2.75.7,4.57l-2.27,2.78,3,5,3.51-.7c1.49,1.08,2.25,1.63,3.74,2.73l.06.58.29,3,5.7,1.41,2-3,4.59-.68,2.75,2.25,5-3-.72-3.51c1.11-1.48,1.65-2.25,2.74-3.72l3.56-.37c.7-2.83.72-2.85,1.42-5.7Zm-9.65.72a8.22,8.22,0,0,1-.28.93l0,.17a9.53,9.53,0,0,1-17.66.7c0-.08-.06-.13-.08-.21a9.13,9.13,0,0,1-.42-1.17l-.18-.73a4,4,0,0,1-.11-.78,7.66,7.66,0,0,1-.06-1v-.05a8.9,8.9,0,0,1,.19-1.86c.06-.31.14-.62.23-.92a5.59,5.59,0,0,1,.33-.89,10.32,10.32,0,0,1,.88-1.63,9.3,9.3,0,0,1,4-3.43,9.52,9.52,0,0,1,12.59,4.79,1.81,1.81,0,0,1,.1.27,4,4,0,0,1,.33.89,5.9,5.9,0,0,1,.23.92,7.5,7.5,0,0,1,.14.95,1.45,1.45,0,0,1,0,.42,5.33,5.33,0,0,1,0,1.13A10.45,10.45,0,0,1,185.94,189.37Z"/><circle class="cls-90" cx="176.65" cy="187.31" r="9.55"/><path class="cls-91" d="M178.83,184.12a4.73,4.73,0,0,1-9,2.83v0a4.89,4.89,0,0,1-.27-.87,4.7,4.7,0,0,1,3.67-5.56,4.65,4.65,0,0,1,3.17.44l0,0A4.73,4.73,0,0,1,178.83,184.12Z"/><circle class="cls-25" cx="170.95" cy="184.67" r="0.81"/><circle class="cls-25" cx="172.01" cy="182.6" r="1.17"/><circle class="cls-91" cx="180.9" cy="190.48" r="3.17"/><circle class="cls-25" cx="179.12" cy="189.61" r="0.83"/><circle class="cls-25" cx="180.23" cy="188.33" r="0.51"/><path class="cls-92" d="M483.4,247.58,481,246c-.29-1.82-.42-2.75-.71-4.57l2.28-2.77c-1.51-2.5-1.53-2.52-3-5l-3.51.73-3.72-2.73L472,228l-5.71-1.39-2,3c-1.82.29-2.75.41-4.58.7L456.94,228c-2.5,1.54-2.5,1.54-5,3.05l.72,3.51c-1.11,1.47-1.65,2.22-2.75,3.72l-3.55.35c-.72,2.82-.72,2.84-1.41,5.69l3,2c.27,1.82.43,2.75.7,4.57l-2.27,2.78,3,5,3.51-.7c1.49,1.08,2.25,1.63,3.74,2.73l.06.58.29,3,5.7,1.41,2-3,4.59-.68,2.75,2.25,5-3-.72-3.5c1.11-1.48,1.65-2.25,2.74-3.72l3.56-.37c.7-2.83.72-2.85,1.42-5.7Zm-9.65.72a8.22,8.22,0,0,1-.28.93l-.05.17a9.53,9.53,0,0,1-17.66.7c0-.08-.06-.14-.08-.21a9.13,9.13,0,0,1-.42-1.17l-.18-.73a4,4,0,0,1-.11-.78,7.66,7.66,0,0,1-.06-1v-.05a9,9,0,0,1,.19-1.87,8.65,8.65,0,0,1,.23-.91,5.59,5.59,0,0,1,.33-.89,10.32,10.32,0,0,1,.88-1.63,9.3,9.3,0,0,1,4-3.43,9.52,9.52,0,0,1,12.59,4.79,1.81,1.81,0,0,1,.1.27,4,4,0,0,1,.33.89,5.51,5.51,0,0,1,.23.91,7.77,7.77,0,0,1,.14,1,1.54,1.54,0,0,1,0,.43,5.24,5.24,0,0,1,0,1.12A10.36,10.36,0,0,1,473.75,248.3Z"/><circle class="cls-90" cx="464.46" cy="246.24" r="9.55"/><path class="cls-91" d="M466.64,243.05a4.73,4.73,0,0,1-9,2.83v-.06a4.55,4.55,0,0,1-.27-.86,4.7,4.7,0,0,1,3.67-5.56,4.65,4.65,0,0,1,3.17.44l0,0A4.73,4.73,0,0,1,466.64,243.05Z"/><circle class="cls-25" cx="458.76" cy="243.59" r="0.81"/><circle class="cls-25" cx="459.82" cy="241.53" r="1.17"/><circle class="cls-91" cx="468.71" cy="249.41" r="3.17"/><circle class="cls-25" cx="466.93" cy="248.54" r="0.83"/><circle class="cls-25" cx="468.04" cy="247.26" r="0.51"/><path class="cls-93" d="M49.18,230.21V237a18.16,18.16,0,0,0-1.82-.1,16.17,16.17,0,0,0-16.17,16.16,4.35,4.35,0,0,0,0,.51H21.06c0-.25,0-.54-.06-.89l3.45-1.11c.33-2,.39-2.4.72-4.46L22.24,245c1.05-2.46.89-2,1.92-4.53l3.57.62c1.24-1.65,1.47-1.94,2.71-3.61l-1.59-3.23c2.07-1.71,1.72-1.44,3.82-3.12l2.85,2.21,4.07-1.94.09-3.63c2.64-.54,2.21-.44,4.83-1l1.51,3.3Z"/><path class="cls-94" d="M69.32,259.9c-.82,1.9-.95,2.25-1.77,4.15l2.33,2.77c-1.61,2.15-1.36,1.8-3,3.93l-3.29-1.45-3.51,2.87.78,3.52c-2.43,1.15-2,1-4.44,2.12L54.18,275c-2,.42-2.38.48-4.42.91l-.95,3.49-.5,0V269.22A16.15,16.15,0,0,0,63.5,253.09h6.85c0,.09,0,.21,0,.32l3.36,1.38c-.43,2.66-.37,2.23-.8,4.87Z"/><path class="cls-63" d="M72.92,259.64c.43-2.63.37-2.21.8-4.85l-3.36-1.39c0-.11,0-.23,0-.33-.16-1.76-.19-2.21-.36-4.17L73.08,247c-.85-2.54-.72-2.14-1.57-4.7l-3.6.36c-1.12-1.75-1.31-2.06-2.41-3.81l1.84-3.12c-1.94-1.85-1.63-1.54-3.55-3.4l-3,2c-1.78-1-2.11-1.21-3.89-2.25l.17-3.6c-2.56-.76-2.15-.64-4.73-1.37l-1.77,3.16c-.52,0-1,0-1.31-.07h0L46,230.09l-1.51-3.3-4.83,1-.09,3.61-4.08,1.95-2.84-2.22c-2.09,1.69-1.75,1.42-3.82,3.12l1.59,3.24c-1.24,1.67-1.47,1.95-2.71,3.6l-3.57-.61c-1,2.48-.87,2.07-1.92,4.54l2.93,2.12c-.33,2.06-.38,2.43-.72,4.46L21,252.7c0,.36,0,.64.05.9.17,1.72.17,1.71.36,4l3.57.53c.65,2,.76,2.31,1.43,4.28L23.87,265c1.43,2.25,1.2,1.91,2.63,4.16L29.94,268l3.24,3.12-1.06,3.45c1.06.6,1.58.91,2,1.16L36.41,277l2.46-2.65,4.34,1.27.68,3.54c2.5.1,2.28.07,4.42.18l.5,0,1-3.49c2-.43,2.4-.48,4.41-.92l2.27,2.84c2.42-1.15,2-1,4.44-2.12l-.78-3.52c1.61-1.33,1.9-1.56,3.51-2.87l3.29,1.45c1.61-2.13,1.37-1.79,3-3.93L67.55,264c.82-1.89,1-2.25,1.76-4.14Zm-9.41-6.54a16.16,16.16,0,0,1-15.2,16.12c-.31,0-.64,0-1,0a16.13,16.13,0,0,1-14.12-8.32,15.66,15.66,0,0,1-2-7.32,2.85,2.85,0,0,1,0-.5,16.17,16.17,0,0,1,16.17-16.17,15.61,15.61,0,0,1,1.82.1,16.17,16.17,0,0,1,14.33,16Z"/><circle class="cls-95" cx="47.35" cy="253.08" r="18.25"/><circle class="cls-96" cx="47.35" cy="253.08" r="11.42"/><circle class="cls-83" cx="47.35" cy="253.08" r="7.06"/><polygon class="cls-97" points="331.54 255 343.54 227.04 372.1 234.49 383.87 255 355.09 264.08 331.54 255"/><circle class="cls-98" cx="343.54" cy="227.04" r="6.37"/><circle class="cls-99" cx="372.1" cy="234.49" r="3.17"/><circle class="cls-100" cx="355.09" cy="264.08" r="9.95"/><circle class="cls-99" cx="331.54" cy="255" r="3.34"/><path class="cls-99" d="M396.22,268.17a13.26,13.26,0,0,0-5.67,1.26,13.5,13.5,0,0,0-7.87,12.29,13.11,13.11,0,0,0,.83,4.63c7.85-4.86,18.08-5.73,26.26-4.65A13.54,13.54,0,0,0,396.22,268.17Zm-6.53,10.68a1.42,1.42,0,1,1,1.42-1.41A1.42,1.42,0,0,1,389.69,278.85Zm11.69,1.2a2.11,2.11,0,1,1,2.11-2.11A2.1,2.1,0,0,1,401.38,280.05Z"/><line class="cls-97" x1="383.87" y1="255" x2="396.22" y2="281.72"/><circle class="cls-101" cx="383.87" cy="255" r="11.9"/><path class="cls-102" d="M383.51,286.35a13.53,13.53,0,0,0,26.26-4.63v0C401.59,280.62,391.36,281.49,383.51,286.35Zm13.37,6.34a2.41,2.41,0,1,1,2.41-2.4A2.41,2.41,0,0,1,396.88,292.69Z"/><circle class="cls-103" cx="352.77" cy="256.43" r="1.45"/><circle class="cls-103" cx="340.01" cy="224.17" r="1.03"/><circle class="cls-103" cx="343.83" cy="222.12" r="1.03"/><circle class="cls-24" cx="128.27" cy="133.74" r="3.63"/><circle class="cls-21" cx="133.64" cy="132.44" r="0.87"/><circle class="cls-24" cx="134.51" cy="136.36" r="2.04"/><circle class="cls-21" cx="136.54" cy="132.44" r="1.31"/><circle class="cls-23" cx="130.73" cy="125.24" r="1.74"/><circle class="cls-23" cx="131.9" cy="129.82" r="0.86"/><circle class="cls-53" cx="131.9" cy="189.27" r="22.67"/><rect class="cls-53" x="123.62" y="140.43" width="16.55" height="48.84"/><path class="cls-104" d="M154.56,189.27a22.67,22.67,0,1,1-45.34,0,22.09,22.09,0,0,1,1-6.55c8.86,2.11,17.83,3,23.14,1.59A112.47,112.47,0,0,0,151.55,178,22.78,22.78,0,0,1,154.56,189.27Z"/><path class="cls-105" d="M154.56,189.27a22.66,22.66,0,0,1-44.19,7.1c7.94-4.21,16.72-5.74,25.15-6.23,8-.46,14.29-2.46,18.67-4.94A21.85,21.85,0,0,1,154.56,189.27Z"/><path class="cls-65" d="M377.17,172c-1.35-2.38-2-3.59-3.39-6l1.69-5.06c-3.43-2.68-3.45-2.7-6.89-5.37l-4.5,2.85-6.63-1.85-2.39-8.08-8.67,1.07-1.15,8.51-6,3.39-5.07-1.7c-2.68,3.44-2.68,3.46-5.37,6.89l2.85,4.51c-.73,2.64-1.11,4-1.85,6.63l-8.07,2.39c.38,3.12.49,4,.73,5.9v0c.07.71.17,1.55.33,2.74L331.3,190c.45.78.81,1.45,1.16,2.06.5.1,1,.22,1.5.34,1.07.24,2.12.5,3.14.74l2,.52c2.08.54,4,1.07,5.81,1.61l1.07.31c.6.19,1.17.36,1.74.52s.95.29,1.42.45l.7.22a1.71,1.71,0,0,1,.3.09l1.41.45c12.3,3.92,25.13-13.75,31.62-24.49Zm-22.94,23.23A14.22,14.22,0,1,1,368.44,181,14.23,14.23,0,0,1,354.23,195.23Z"/><ellipse class="cls-106" cx="349.88" cy="177.46" rx="5.78" ry="4.18" transform="translate(-42.22 164.49) rotate(-25)"/><ellipse class="cls-75" cx="360.87" cy="177.45" rx="4.18" ry="5.78" transform="translate(47.54 429.52) rotate(-65)"/><path class="cls-75" d="M345.8,188c0-2.31,3.77-5.36,8.44-5.36s8.44,3,8.44,5.36-3.78,2-8.44,2S345.8,190.29,345.8,188Z"/><path class="cls-66" d="M376.82,190.86l2.85,4.5-5.37,6.88-5.07-1.68-6,3.39-1.17,8.51-8.67,1L351,205.43c-2.64-.72-4-1.1-6.63-1.85l-4.5,2.87c-3.44-2.69-3.46-2.69-6.89-5.39l1.69-5.06c-.9-1.6-1.52-2.67-2.23-3.94,7.82,1.73,14.49,3.77,19.12,5.25,12.29,3.92,25.12-13.74,31.62-24.48l2.48.34c.54,4.32.54,4.34,1.06,8.67l-8.07,2.38C377.93,186.87,377.55,188.21,376.82,190.86Z"/><path class="cls-107" d="M355.74,182.74A17.85,17.85,0,0,0,350,190c-2.51-.07-4.2-.45-4.2-2,0-2.29,3.78-5.35,8.45-5.35A8.21,8.21,0,0,1,355.74,182.74Z"/><polygon class="cls-41" points="283.11 375.11 277.81 372.27 273.5 376.46 273.31 370.45 267.52 368.82 272.63 365.65 271.15 359.82 276.45 362.66 280.76 358.46 280.95 364.47 286.74 366.11 281.63 369.28 283.11 375.11"/><polygon class="cls-41" points="173.81 93.47 171.33 92.15 169.32 94.11 169.23 91.3 166.53 90.54 168.91 89.06 168.22 86.33 170.7 87.66 172.71 85.7 172.8 88.51 175.51 89.27 173.12 90.75 173.81 93.47"/><polygon class="cls-41" points="318.27 121.6 315.79 120.27 313.78 122.23 313.69 119.42 310.99 118.66 313.38 117.18 312.68 114.46 315.16 115.78 317.17 113.82 317.26 116.63 319.97 117.39 317.58 118.88 318.27 121.6"/><polygon class="cls-41" points="332.3 132.7 330.99 132 329.92 133.03 329.88 131.55 328.45 131.15 329.71 130.36 329.34 128.93 330.65 129.63 331.71 128.59 331.76 130.07 333.19 130.48 331.93 131.26 332.3 132.7"/><polygon class="cls-41" points="330.21 121.45 329.62 121.13 329.13 121.6 329.11 120.92 328.46 120.74 329.03 120.38 328.87 119.72 329.46 120.04 329.95 119.57 329.97 120.25 330.62 120.43 330.05 120.79 330.21 121.45"/><polygon class="cls-41" points="330.21 104.83 329.62 104.51 329.13 104.98 329.11 104.3 328.46 104.12 329.03 103.76 328.87 103.11 329.46 103.42 329.95 102.95 329.97 103.63 330.62 103.81 330.05 104.17 330.21 104.83"/><polygon class="cls-41" points="157.32 99.85 155.67 98.97 154.34 100.27 154.28 98.41 152.48 97.9 154.07 96.92 153.61 95.11 155.25 95.99 156.59 94.69 156.65 96.55 158.44 97.06 156.86 98.04 157.32 99.85"/><polygon class="cls-41" points="147.93 87.96 145.07 86.43 142.75 88.69 142.65 85.45 139.53 84.57 142.28 82.86 141.48 79.72 144.34 81.25 146.66 78.99 146.77 82.23 149.89 83.11 147.13 84.82 147.93 87.96"/></g></svg>